<svg width="48" height="48" viewBox="0 0 82 49" fill="none" xmlns="http://www.w3.org/2000/svg">
<g filter="url(#filter0_d_3_4)">
<path d="M30.64 40.752H6.208C5.44 40.752 4.88 40.576 4.528 40.224C4.176 39.872 4 39.312 4 38.544V7.44C4 7.024 4.048 6.672 4.144 6.384C4.272 6.096 4.448 5.856 4.672 5.664L10.864 0.432C11.024 0.304 11.232 0.207999 11.488 0.143998C11.776 0.0479994 12.08 0 12.4 0H19.84C20.608 0 21.168 0.176 21.52 0.527999C21.872 0.88 22.048 1.44 22.048 2.208V21.744L22.144 21.648L28.336 16.416C28.496 16.288 28.704 16.192 28.96 16.128C29.248 16.032 29.552 15.984 29.872 15.984H36.832C37.6 15.984 38.16 16.16 38.512 16.512C38.864 16.864 39.04 17.424 39.04 18.192V33.312C39.04 33.728 38.976 34.08 38.848 34.368C38.752 34.656 38.592 34.896 38.368 35.088L32.128 40.272C32 40.4 31.792 40.512 31.504 40.608C31.248 40.704 30.96 40.752 30.64 40.752ZM36.832 35.04C37.44 35.04 37.872 34.912 38.128 34.656C38.416 34.368 38.56 33.92 38.56 33.312V18.192C38.56 17.584 38.416 17.152 38.128 16.896C37.872 16.608 37.44 16.464 36.832 16.464H29.872C29.264 16.464 28.816 16.608 28.528 16.896C28.272 17.152 28.144 17.584 28.144 18.192V25.968H21.568V2.208C21.568 1.6 21.424 1.168 21.136 0.912C20.88 0.624 20.448 0.48 19.84 0.48H12.4C11.792 0.48 11.344 0.624 11.056 0.912C10.8 1.168 10.672 1.6 10.672 2.208V33.312C10.672 33.92 10.8 34.368 11.056 34.656C11.344 34.912 11.792 35.04 12.4 35.04H36.832ZM15.904 30.72V4.8H16.384V30.24H33.088V20.784H33.568V30.72H15.904ZM51.8042 40.752H44.3642C43.5962 40.752 43.0362 40.576 42.6842 40.224C42.3322 39.872 42.1562 39.312 42.1562 38.544V7.44C42.1562 7.024 42.2042 6.672 42.3002 6.384C42.4282 6.096 42.6042 5.856 42.8282 5.664L49.0202 0.432C49.1802 0.304 49.3882 0.207999 49.6442 0.143998C49.9322 0.0479994 50.2362 0 50.5562 0H65.2442C67.5162 0 69.4202 0.24 70.9562 0.719999C72.4922 1.2 73.7082 1.872 74.6042 2.736C75.5002 3.6 76.1242 4.64 76.4762 5.856C76.8602 7.072 77.0522 8.4 77.0522 9.84V15.984C77.0522 17.52 76.8282 18.928 76.3802 20.208C75.9642 21.456 75.2282 22.528 74.1722 23.424L67.9322 28.608C67.1322 29.28 66.0922 29.84 64.8122 30.288C63.5642 30.704 62.0282 30.944 60.2042 31.008V33.312C60.2042 33.728 60.1402 34.08 60.0122 34.368C59.9162 34.656 59.7562 34.896 59.5322 35.088L53.2922 40.272C53.1642 40.4 52.9562 40.512 52.6682 40.608C52.4122 40.704 52.1242 40.752 51.8042 40.752ZM57.9962 35.04C58.6042 35.04 59.0362 34.912 59.2922 34.656C59.5802 34.368 59.7242 33.92 59.7242 33.312V25.344H65.2442C69.5962 25.344 72.5722 24.48 74.1722 22.752C75.7722 21.024 76.5722 18.768 76.5722 15.984V9.84C76.5722 7.056 75.7722 4.8 74.1722 3.072C72.5722 1.344 69.5962 0.48 65.2442 0.48H50.5562C49.9482 0.48 49.5002 0.624 49.2122 0.912C48.9562 1.168 48.8282 1.6 48.8282 2.208V33.312C48.8282 33.92 48.9562 34.368 49.2122 34.656C49.5002 34.912 49.9482 35.04 50.5562 35.04H57.9962ZM64.5722 21.264H54.6842V30.72H54.2042V4.8H64.5722C66.0762 4.8 67.2922 4.976 68.2202 5.328C69.1802 5.648 69.9162 6.096 70.4282 6.672C70.9402 7.248 71.2922 7.936 71.4842 8.736C71.6762 9.536 71.7722 10.4 71.7722 11.328V14.88C71.7722 15.808 71.6762 16.672 71.4842 17.472C71.2922 18.24 70.9402 18.912 70.4282 19.488C69.9162 20.032 69.1802 20.464 68.2202 20.784C67.2922 21.104 66.0762 21.264 64.5722 21.264ZM54.6842 20.784H64.5722C65.9802 20.784 67.1162 20.64 67.9802 20.352C68.8762 20.064 69.5642 19.664 70.0442 19.152C70.5242 18.608 70.8442 17.984 71.0042 17.28C71.1962 16.544 71.2922 15.744 71.2922 14.88V11.328C71.2922 10.464 71.1962 9.664 71.0042 8.928C70.8442 8.192 70.5242 7.552 70.0442 7.008C69.5642 6.464 68.8762 6.048 67.9802 5.76C67.1162 5.44 65.9802 5.28 64.5722 5.28H54.6842V20.784ZM59.6282 9.456H63.9482C64.8762 9.456 65.4842 9.696 65.7722 10.176C66.0602 10.656 66.2042 11.2 66.2042 11.808V14.352C66.2042 14.96 66.0602 15.504 65.7722 15.984C65.4842 16.464 64.8762 16.704 63.9482 16.704H59.6282V9.456Z" fill="#0987E8"/>
</g>
<defs>
<filter id="filter0_d_3_4" x="0" y="0" width="81.0522" height="48.752" filterUnits="userSpaceOnUse" color-interpolation-filters="sRGB">
<feFlood flood-opacity="0" result="BackgroundImageFix"/>
<feColorMatrix in="SourceAlpha" type="matrix" values="0 0 0 0 0 0 0 0 0 0 0 0 0 0 0 0 0 0 127 0" result="hardAlpha"/>
<feOffset dy="4"/>
<feGaussianBlur stdDeviation="2"/>
<feComposite in2="hardAlpha" operator="out"/>
<feColorMatrix type="matrix" values="0 0 0 0 0 0 0 0 0 0 0 0 0 0 0 0 0 0 0.25 0"/>
<feBlend mode="normal" in2="BackgroundImageFix" result="effect1_dropShadow_3_4"/>
<feBlend mode="normal" in="SourceGraphic" in2="effect1_dropShadow_3_4" result="shape"/>
</filter>
</defs>
</svg>
