<svg width="84" height="51" viewBox="0 0 84 51" fill="none" xmlns="http://www.w3.org/2000/svg">
<g filter="url(#filter0_d_44_2)">
<mask id="path-1-outside-1_44_2" maskUnits="userSpaceOnUse" x="3.84" y="-0.959999" width="76" height="44" fill="black">
<rect fill="white" x="3.84" y="-0.959999" width="76" height="44"/>
<path d="M31.64 41.752H7.208C6.44 41.752 5.88 41.576 5.528 41.224C5.176 40.872 5 40.312 5 39.544V8.44C5 8.024 5.048 7.672 5.144 7.384C5.272 7.096 5.448 6.856 5.672 6.664L11.864 1.432C12.024 1.304 12.232 1.208 12.488 1.144C12.776 1.048 13.08 1 13.4 1H20.84C21.608 1 22.168 1.176 22.52 1.528C22.872 1.88 23.048 2.44 23.048 3.208V22.744L23.144 22.648L29.336 17.416C29.496 17.288 29.704 17.192 29.96 17.128C30.248 17.032 30.552 16.984 30.872 16.984H37.832C38.6 16.984 39.16 17.16 39.512 17.512C39.864 17.864 40.04 18.424 40.04 19.192V34.312C40.04 34.728 39.976 35.08 39.848 35.368C39.752 35.656 39.592 35.896 39.368 36.088L33.128 41.272C33 41.4 32.792 41.512 32.504 41.608C32.248 41.704 31.96 41.752 31.64 41.752ZM37.832 36.04C38.44 36.04 38.872 35.912 39.128 35.656C39.416 35.368 39.56 34.92 39.56 34.312V19.192C39.56 18.584 39.416 18.152 39.128 17.896C38.872 17.608 38.44 17.464 37.832 17.464H30.872C30.264 17.464 29.816 17.608 29.528 17.896C29.272 18.152 29.144 18.584 29.144 19.192V26.968H22.568V3.208C22.568 2.6 22.424 2.168 22.136 1.912C21.88 1.624 21.448 1.48 20.84 1.48H13.4C12.792 1.48 12.344 1.624 12.056 1.912C11.8 2.168 11.672 2.6 11.672 3.208V34.312C11.672 34.92 11.8 35.368 12.056 35.656C12.344 35.912 12.792 36.04 13.4 36.04H37.832ZM16.904 31.72V5.8H17.384V31.24H34.088V21.784H34.568V31.72H16.904ZM52.8042 41.752H45.3642C44.5962 41.752 44.0362 41.576 43.6842 41.224C43.3322 40.872 43.1562 40.312 43.1562 39.544V8.44C43.1562 8.024 43.2042 7.672 43.3002 7.384C43.4282 7.096 43.6042 6.856 43.8282 6.664L50.0202 1.432C50.1802 1.304 50.3882 1.208 50.6442 1.144C50.9322 1.048 51.2362 1 51.5562 1H66.2442C68.5162 1 70.4202 1.24 71.9562 1.72C73.4922 2.2 74.7082 2.872 75.6042 3.736C76.5002 4.6 77.1242 5.64 77.4762 6.856C77.8602 8.072 78.0522 9.4 78.0522 10.84V16.984C78.0522 18.52 77.8282 19.928 77.3802 21.208C76.9642 22.456 76.2282 23.528 75.1722 24.424L68.9322 29.608C68.1322 30.28 67.0922 30.84 65.8122 31.288C64.5642 31.704 63.0282 31.944 61.2042 32.008V34.312C61.2042 34.728 61.1402 35.08 61.0122 35.368C60.9162 35.656 60.7562 35.896 60.5322 36.088L54.2922 41.272C54.1642 41.4 53.9562 41.512 53.6682 41.608C53.4122 41.704 53.1242 41.752 52.8042 41.752ZM58.9962 36.04C59.6042 36.04 60.0362 35.912 60.2922 35.656C60.5802 35.368 60.7242 34.92 60.7242 34.312V26.344H66.2442C70.5962 26.344 73.5722 25.48 75.1722 23.752C76.7722 22.024 77.5722 19.768 77.5722 16.984V10.84C77.5722 8.056 76.7722 5.8 75.1722 4.072C73.5722 2.344 70.5962 1.48 66.2442 1.48H51.5562C50.9482 1.48 50.5002 1.624 50.2122 1.912C49.9562 2.168 49.8282 2.6 49.8282 3.208V34.312C49.8282 34.92 49.9562 35.368 50.2122 35.656C50.5002 35.912 50.9482 36.04 51.5562 36.04H58.9962ZM65.5722 22.264H55.6842V31.72H55.2042V5.8H65.5722C67.0762 5.8 68.2922 5.976 69.2202 6.328C70.1802 6.648 70.9162 7.096 71.4282 7.672C71.9402 8.248 72.2922 8.936 72.4842 9.736C72.6762 10.536 72.7722 11.4 72.7722 12.328V15.88C72.7722 16.808 72.6762 17.672 72.4842 18.472C72.2922 19.24 71.9402 19.912 71.4282 20.488C70.9162 21.032 70.1802 21.464 69.2202 21.784C68.2922 22.104 67.0762 22.264 65.5722 22.264ZM55.6842 21.784H65.5722C66.9802 21.784 68.1162 21.64 68.9802 21.352C69.8762 21.064 70.5642 20.664 71.0442 20.152C71.5242 19.608 71.8442 18.984 72.0042 18.28C72.1962 17.544 72.2922 16.744 72.2922 15.88V12.328C72.2922 11.464 72.1962 10.664 72.0042 9.928C71.8442 9.192 71.5242 8.552 71.0442 8.008C70.5642 7.464 69.8762 7.048 68.9802 6.76C68.1162 6.44 66.9802 6.28 65.5722 6.28H55.6842V21.784ZM60.6282 10.456H64.9482C65.8762 10.456 66.4842 10.696 66.7722 11.176C67.0602 11.656 67.2042 12.2 67.2042 12.808V15.352C67.2042 15.96 67.0602 16.504 66.7722 16.984C66.4842 17.464 65.8762 17.704 64.9482 17.704H60.6282V10.456Z"/>
</mask>
<path d="M31.64 41.752H7.208C6.44 41.752 5.88 41.576 5.528 41.224C5.176 40.872 5 40.312 5 39.544V8.44C5 8.024 5.048 7.672 5.144 7.384C5.272 7.096 5.448 6.856 5.672 6.664L11.864 1.432C12.024 1.304 12.232 1.208 12.488 1.144C12.776 1.048 13.08 1 13.4 1H20.84C21.608 1 22.168 1.176 22.52 1.528C22.872 1.88 23.048 2.44 23.048 3.208V22.744L23.144 22.648L29.336 17.416C29.496 17.288 29.704 17.192 29.96 17.128C30.248 17.032 30.552 16.984 30.872 16.984H37.832C38.6 16.984 39.16 17.16 39.512 17.512C39.864 17.864 40.04 18.424 40.04 19.192V34.312C40.04 34.728 39.976 35.08 39.848 35.368C39.752 35.656 39.592 35.896 39.368 36.088L33.128 41.272C33 41.4 32.792 41.512 32.504 41.608C32.248 41.704 31.96 41.752 31.64 41.752ZM37.832 36.04C38.44 36.04 38.872 35.912 39.128 35.656C39.416 35.368 39.56 34.92 39.56 34.312V19.192C39.56 18.584 39.416 18.152 39.128 17.896C38.872 17.608 38.44 17.464 37.832 17.464H30.872C30.264 17.464 29.816 17.608 29.528 17.896C29.272 18.152 29.144 18.584 29.144 19.192V26.968H22.568V3.208C22.568 2.6 22.424 2.168 22.136 1.912C21.88 1.624 21.448 1.48 20.84 1.48H13.4C12.792 1.48 12.344 1.624 12.056 1.912C11.8 2.168 11.672 2.6 11.672 3.208V34.312C11.672 34.92 11.8 35.368 12.056 35.656C12.344 35.912 12.792 36.04 13.4 36.04H37.832ZM16.904 31.72V5.8H17.384V31.24H34.088V21.784H34.568V31.72H16.904ZM52.8042 41.752H45.3642C44.5962 41.752 44.0362 41.576 43.6842 41.224C43.3322 40.872 43.1562 40.312 43.1562 39.544V8.44C43.1562 8.024 43.2042 7.672 43.3002 7.384C43.4282 7.096 43.6042 6.856 43.8282 6.664L50.0202 1.432C50.1802 1.304 50.3882 1.208 50.6442 1.144C50.9322 1.048 51.2362 1 51.5562 1H66.2442C68.5162 1 70.4202 1.24 71.9562 1.72C73.4922 2.2 74.7082 2.872 75.6042 3.736C76.5002 4.6 77.1242 5.64 77.4762 6.856C77.8602 8.072 78.0522 9.4 78.0522 10.84V16.984C78.0522 18.52 77.8282 19.928 77.3802 21.208C76.9642 22.456 76.2282 23.528 75.1722 24.424L68.9322 29.608C68.1322 30.28 67.0922 30.84 65.8122 31.288C64.5642 31.704 63.0282 31.944 61.2042 32.008V34.312C61.2042 34.728 61.1402 35.08 61.0122 35.368C60.9162 35.656 60.7562 35.896 60.5322 36.088L54.2922 41.272C54.1642 41.4 53.9562 41.512 53.6682 41.608C53.4122 41.704 53.1242 41.752 52.8042 41.752ZM58.9962 36.04C59.6042 36.04 60.0362 35.912 60.2922 35.656C60.5802 35.368 60.7242 34.92 60.7242 34.312V26.344H66.2442C70.5962 26.344 73.5722 25.48 75.1722 23.752C76.7722 22.024 77.5722 19.768 77.5722 16.984V10.84C77.5722 8.056 76.7722 5.8 75.1722 4.072C73.5722 2.344 70.5962 1.48 66.2442 1.48H51.5562C50.9482 1.48 50.5002 1.624 50.2122 1.912C49.9562 2.168 49.8282 2.6 49.8282 3.208V34.312C49.8282 34.92 49.9562 35.368 50.2122 35.656C50.5002 35.912 50.9482 36.04 51.5562 36.04H58.9962ZM65.5722 22.264H55.6842V31.72H55.2042V5.8H65.5722C67.0762 5.8 68.2922 5.976 69.2202 6.328C70.1802 6.648 70.9162 7.096 71.4282 7.672C71.9402 8.248 72.2922 8.936 72.4842 9.736C72.6762 10.536 72.7722 11.4 72.7722 12.328V15.88C72.7722 16.808 72.6762 17.672 72.4842 18.472C72.2922 19.24 71.9402 19.912 71.4282 20.488C70.9162 21.032 70.1802 21.464 69.2202 21.784C68.2922 22.104 67.0762 22.264 65.5722 22.264ZM55.6842 21.784H65.5722C66.9802 21.784 68.1162 21.64 68.9802 21.352C69.8762 21.064 70.5642 20.664 71.0442 20.152C71.5242 19.608 71.8442 18.984 72.0042 18.28C72.1962 17.544 72.2922 16.744 72.2922 15.88V12.328C72.2922 11.464 72.1962 10.664 72.0042 9.928C71.8442 9.192 71.5242 8.552 71.0442 8.008C70.5642 7.464 69.8762 7.048 68.9802 6.76C68.1162 6.44 66.9802 6.28 65.5722 6.28H55.6842V21.784ZM60.6282 10.456H64.9482C65.8762 10.456 66.4842 10.696 66.7722 11.176C67.0602 11.656 67.2042 12.2 67.2042 12.808V15.352C67.2042 15.96 67.0602 16.504 66.7722 16.984C66.4842 17.464 65.8762 17.704 64.9482 17.704H60.6282V10.456Z" fill="white"/>
<path d="M5.144 7.384L4.23018 6.97786L4.21058 7.02198L4.19531 7.06777L5.144 7.384ZM5.672 6.664L5.02657 5.90014L5.0212 5.90474L5.672 6.664ZM11.864 1.432L11.2393 0.651131L11.2288 0.659508L11.2186 0.668163L11.864 1.432ZM12.488 1.144L12.7305 2.11414L12.7678 2.10482L12.8042 2.09268L12.488 1.144ZM22.52 1.528L23.2271 0.820892H23.2271L22.52 1.528ZM23.048 22.744H22.048V25.1582L23.7551 23.4511L23.048 22.744ZM23.144 22.648L22.4986 21.8842L22.4665 21.9112L22.4369 21.9409L23.144 22.648ZM29.336 17.416L28.7113 16.6351L28.7008 16.6435L28.6906 16.6522L29.336 17.416ZM29.96 17.128L30.2025 18.0981L30.2398 18.0888L30.2762 18.0767L29.96 17.128ZM39.512 17.512L40.2191 16.8049V16.8049L39.512 17.512ZM39.848 35.368L38.9342 34.9619L38.9146 35.006L38.8993 35.0518L39.848 35.368ZM39.368 36.088L40.007 36.8572L40.0129 36.8523L40.0188 36.8473L39.368 36.088ZM33.128 41.272L32.489 40.5028L32.4535 40.5323L32.4209 40.5649L33.128 41.272ZM32.504 41.608L32.1878 40.6593L32.1702 40.6652L32.1529 40.6717L32.504 41.608ZM39.128 35.656L39.8351 36.3631V36.3631L39.128 35.656ZM39.128 17.896L38.3806 18.5604L38.4197 18.6043L38.4636 18.6434L39.128 17.896ZM29.528 17.896L30.2351 18.6031L30.2351 18.6031L29.528 17.896ZM29.144 26.968V27.968H30.144V26.968H29.144ZM22.568 26.968H21.568V27.968H22.568V26.968ZM22.136 1.912L21.3886 2.57636L21.4277 2.62033L21.4716 2.65941L22.136 1.912ZM12.056 1.912L11.3489 1.20489L11.3489 1.2049L12.056 1.912ZM12.056 35.656L11.3086 36.3204L11.3477 36.3643L11.3916 36.4034L12.056 35.656ZM16.904 31.72H15.904V32.72H16.904V31.72ZM16.904 5.8V4.8H15.904V5.8H16.904ZM17.384 5.8H18.384V4.8H17.384V5.8ZM17.384 31.24H16.384V32.24H17.384V31.24ZM34.088 31.24V32.24H35.088V31.24H34.088ZM34.088 21.784V20.784H33.088V21.784H34.088ZM34.568 21.784H35.568V20.784H34.568V21.784ZM34.568 31.72V32.72H35.568V31.72H34.568ZM31.64 41.752V40.752H7.208V41.752V42.752H31.64V41.752ZM7.208 41.752V40.752C6.56457 40.752 6.31926 40.6011 6.2351 40.5169L5.528 41.224L4.82089 41.9311C5.44073 42.5509 6.31543 42.752 7.208 42.752V41.752ZM5.528 41.224L6.2351 40.5169C6.15094 40.4327 6 40.1874 6 39.544H5H4C4 40.4366 4.20105 41.3113 4.82089 41.9311L5.528 41.224ZM5 39.544H6V8.44H5H4V39.544H5ZM5 8.44H6C6 8.09457 6.04065 7.85632 6.09268 7.70023L5.144 7.384L4.19531 7.06777C4.05534 7.48768 4 7.95343 4 8.44H5ZM5.144 7.384L6.05781 7.79014C6.12966 7.62847 6.21921 7.51204 6.32279 7.42325L5.672 6.664L5.0212 5.90474C4.67678 6.19996 4.41433 6.56353 4.23018 6.97786L5.144 7.384ZM5.672 6.664L6.31741 7.42783L12.5094 2.19584L11.864 1.432L11.2186 0.668163L5.02659 5.90016L5.672 6.664ZM11.864 1.432L12.4887 2.21287C12.509 2.19663 12.5754 2.15292 12.7305 2.11414L12.488 1.144L12.2455 0.173855C11.8886 0.263081 11.539 0.411366 11.2393 0.651131L11.864 1.432ZM12.488 1.144L12.8042 2.09268C12.9849 2.03247 13.1816 2 13.4 2V1V0C12.9784 0 12.5671 0.0635262 12.1718 0.195312L12.488 1.144ZM13.4 1V2H20.84V1V0H13.4V1ZM20.84 1V2C21.4834 2 21.7287 2.15095 21.8129 2.23511L22.52 1.528L23.2271 0.820892C22.6073 0.201054 21.7326 0 20.84 0V1ZM22.52 1.528L21.8129 2.2351C21.8971 2.31927 22.048 2.56457 22.048 3.208H23.048H24.048C24.048 2.31543 23.8469 1.44073 23.2271 0.820892L22.52 1.528ZM23.048 3.208H22.048V22.744H23.048H24.048V3.208H23.048ZM23.048 22.744L23.7551 23.4511L23.8511 23.3551L23.144 22.648L22.4369 21.9409L22.3409 22.0369L23.048 22.744ZM23.144 22.648L23.7894 23.4118L29.9814 18.1798L29.336 17.416L28.6906 16.6522L22.4986 21.8842L23.144 22.648ZM29.336 17.416L29.9607 18.1969C29.981 18.1806 30.0474 18.1369 30.2025 18.0981L29.96 17.128L29.7175 16.1579C29.3606 16.2471 29.011 16.3954 28.7113 16.6351L29.336 17.416ZM29.96 17.128L30.2762 18.0767C30.4569 18.0165 30.6536 17.984 30.872 17.984V16.984V15.984C30.4504 15.984 30.0391 16.0475 29.6438 16.1793L29.96 17.128ZM30.872 16.984V17.984H37.832V16.984V15.984H30.872V16.984ZM37.832 16.984V17.984C38.4754 17.984 38.7207 18.1349 38.8049 18.2191L39.512 17.512L40.2191 16.8049C39.5993 16.1851 38.7246 15.984 37.832 15.984V16.984ZM39.512 17.512L38.8049 18.2191C38.889 18.3033 39.04 18.5486 39.04 19.192H40.04H41.04C41.04 18.2994 40.8389 17.4247 40.2191 16.8049L39.512 17.512ZM40.04 19.192H39.04V34.312H40.04H41.04V19.192H40.04ZM40.04 34.312H39.04C39.04 34.6307 38.9903 34.8356 38.9342 34.9619L39.848 35.368L40.7618 35.7741C40.9617 35.3244 41.04 34.8253 41.04 34.312H40.04ZM39.848 35.368L38.8993 35.0518C38.8589 35.1731 38.7995 35.2582 38.7172 35.3287L39.368 36.088L40.0188 36.8473C40.3845 36.5338 40.6451 36.1389 40.7967 35.6842L39.848 35.368ZM39.368 36.088L38.729 35.3188L32.489 40.5028L33.128 41.272L33.767 42.0412L40.007 36.8572L39.368 36.088ZM33.128 41.272L32.4209 40.5649C32.443 40.5428 32.4448 40.5484 32.4019 40.5715C32.3604 40.5939 32.2918 40.6246 32.1878 40.6593L32.504 41.608L32.8202 42.5567C33.1683 42.4407 33.5469 42.2673 33.8351 41.9791L33.128 41.272ZM32.504 41.608L32.1529 40.6717C32.0265 40.7191 31.8601 40.752 31.64 40.752V41.752V42.752C32.0599 42.752 32.4695 42.6889 32.8551 42.5443L32.504 41.608ZM37.832 36.04V37.04C38.5354 37.04 39.2985 36.8998 39.8351 36.3631L39.128 35.656L38.4209 34.9489C38.4362 34.9336 38.4226 34.9571 38.3279 34.9852C38.2299 35.0142 38.071 35.04 37.832 35.04V36.04ZM39.128 35.656L39.8351 36.3631C40.3857 35.8125 40.56 35.0558 40.56 34.312H39.56H38.56C38.56 34.7842 38.4463 34.9235 38.4209 34.9489L39.128 35.656ZM39.56 34.312H40.56V19.192H39.56H38.56V34.312H39.56ZM39.56 19.192H40.56C40.56 18.4611 40.391 17.6807 39.7924 17.1486L39.128 17.896L38.4636 18.6434C38.441 18.6233 38.56 18.7069 38.56 19.192H39.56ZM39.128 17.896L39.8754 17.2316C39.3433 16.633 38.5629 16.464 37.832 16.464V17.464V18.464C38.3171 18.464 38.4007 18.583 38.3806 18.5604L39.128 17.896ZM37.832 17.464V16.464H30.872V17.464V18.464H37.832V17.464ZM30.872 17.464V16.464C30.1282 16.464 29.3715 16.6383 28.8209 17.1889L29.528 17.896L30.2351 18.6031C30.2605 18.5777 30.3998 18.464 30.872 18.464V17.464ZM29.528 17.896L28.8209 17.1889C28.2842 17.7255 28.144 18.4886 28.144 19.192H29.144H30.144C30.144 18.953 30.1698 18.7941 30.1988 18.6961C30.2269 18.6014 30.2504 18.5878 30.2351 18.6031L29.528 17.896ZM29.144 19.192H28.144V26.968H29.144H30.144V19.192H29.144ZM29.144 26.968V25.968H22.568V26.968V27.968H29.144V26.968ZM22.568 26.968H23.568V3.208H22.568H21.568V26.968H22.568ZM22.568 3.208H23.568C23.568 2.47712 23.399 1.69674 22.8004 1.16459L22.136 1.912L21.4716 2.65941C21.449 2.63926 21.568 2.72288 21.568 3.208H22.568ZM22.136 1.912L22.8834 1.24763C22.3513 0.648964 21.5709 0.48 20.84 0.48V1.48V2.48C21.3251 2.48 21.4087 2.59903 21.3886 2.57636L22.136 1.912ZM20.84 1.48V0.48H13.4V1.48V2.48H20.84V1.48ZM13.4 1.48V0.48C12.6562 0.48 11.8995 0.654293 11.3489 1.20489L12.056 1.912L12.7631 2.61911C12.7885 2.59371 12.9278 2.48 13.4 2.48V1.48ZM12.056 1.912L11.3489 1.2049C10.8122 1.74155 10.672 2.50459 10.672 3.208H11.672H12.672C12.672 2.96897 12.6978 2.81008 12.7268 2.71209C12.7548 2.6174 12.7784 2.60384 12.7631 2.61911L12.056 1.912ZM11.672 3.208H10.672V34.312H11.672H12.672V3.208H11.672ZM11.672 34.312H10.672C10.672 35.0302 10.8184 35.7689 11.3086 36.3204L12.056 35.656L12.8034 34.9916C12.7816 34.9671 12.672 34.8098 12.672 34.312H11.672ZM12.056 35.656L11.3916 36.4034C11.9431 36.8936 12.6818 37.04 13.4 37.04V36.04V35.04C12.9022 35.04 12.7449 34.9304 12.7204 34.9086L12.056 35.656ZM13.4 36.04V37.04H37.832V36.04V35.04H13.4V36.04ZM16.904 31.72H17.904V5.8H16.904H15.904V31.72H16.904ZM16.904 5.8V6.8H17.384V5.8V4.8H16.904V5.8ZM17.384 5.8H16.384V31.24H17.384H18.384V5.8H17.384ZM17.384 31.24V32.24H34.088V31.24V30.24H17.384V31.24ZM34.088 31.24H35.088V21.784H34.088H33.088V31.24H34.088ZM34.088 21.784V22.784H34.568V21.784V20.784H34.088V21.784ZM34.568 21.784H33.568V31.72H34.568H35.568V21.784H34.568ZM34.568 31.72V30.72H16.904V31.72V32.72H34.568V31.72ZM43.3002 7.384L42.3864 6.97786L42.3668 7.02198L42.3516 7.06777L43.3002 7.384ZM43.8282 6.664L43.1828 5.90014L43.1775 5.90474L43.8282 6.664ZM50.0202 1.432L49.3955 0.651131L49.3851 0.659508L49.3748 0.668163L50.0202 1.432ZM50.6442 1.144L50.8868 2.11414L50.924 2.10482L50.9605 2.09268L50.6442 1.144ZM71.9563 1.72L72.2545 0.765518V0.765518L71.9563 1.72ZM77.4762 6.856L76.5157 7.13406L76.519 7.14564L76.5227 7.15713L77.4762 6.856ZM77.3802 21.208L76.4364 20.8776L76.4339 20.8847L76.4316 20.8918L77.3802 21.208ZM75.1722 24.424L75.8113 25.1932L75.8192 25.1865L75.1722 24.424ZM68.9323 29.608L68.2932 28.8388L68.2891 28.8423L68.9323 29.608ZM65.8122 31.288L66.1285 32.2367L66.1356 32.2343L66.1426 32.2319L65.8122 31.288ZM61.2042 32.008L61.1692 31.0086L60.2042 31.0425V32.008H61.2042ZM61.0122 35.368L60.0984 34.9619L60.0788 35.006L60.0636 35.0518L61.0122 35.368ZM60.5322 36.088L61.1713 36.8572L61.1772 36.8523L61.183 36.8473L60.5322 36.088ZM54.2922 41.272L53.6532 40.5028L53.6178 40.5323L53.5851 40.5649L54.2922 41.272ZM53.6682 41.608L53.352 40.6593L53.3345 40.6652L53.3171 40.6717L53.6682 41.608ZM60.2922 35.656L59.5851 34.9489V34.9489L60.2922 35.656ZM60.7242 26.344V25.344H59.7242V26.344H60.7242ZM75.1722 23.752L74.4385 23.0726H74.4385L75.1722 23.752ZM75.1722 4.072L74.4385 4.75141L74.4385 4.75141L75.1722 4.072ZM50.2122 1.912L49.5051 1.20489V1.2049L50.2122 1.912ZM50.2122 35.656L49.4648 36.3204L49.5039 36.3643L49.5479 36.4034L50.2122 35.656ZM55.6842 22.264V21.264H54.6842V22.264H55.6842ZM55.6842 31.72V32.72H56.6842V31.72H55.6842ZM55.2042 31.72H54.2042V32.72H55.2042V31.72ZM55.2042 5.8V4.8H54.2042V5.8H55.2042ZM69.2202 6.328L68.8656 7.263L68.8847 7.27023L68.904 7.27668L69.2202 6.328ZM71.4282 7.672L70.6808 8.33636L70.6808 8.33636L71.4282 7.672ZM72.4842 9.736L71.5119 9.96937V9.96937L72.4842 9.736ZM72.4842 18.472L73.4544 18.7145L73.4566 18.7054L72.4842 18.472ZM71.4282 20.488L72.1564 21.1734L72.1662 21.163L72.1757 21.1524L71.4282 20.488ZM69.2202 21.784L68.904 20.8353L68.8943 20.8386L69.2202 21.784ZM55.6842 21.784H54.6842V22.784H55.6842V21.784ZM68.9802 21.352L68.6742 20.3999L68.664 20.4033L68.9802 21.352ZM71.0443 20.152L71.7738 20.8359L71.7841 20.8249L71.7941 20.8136L71.0443 20.152ZM72.0042 18.28L71.0366 18.0276L71.0326 18.0429L71.0291 18.0584L72.0042 18.28ZM72.0042 9.928L71.0271 10.1404L71.0314 10.1605L71.0366 10.1804L72.0042 9.928ZM71.0443 8.008L71.7941 7.34638V7.34637L71.0443 8.008ZM68.9802 6.76L68.6329 7.69775L68.6534 7.70534L68.6742 7.71203L68.9802 6.76ZM55.6842 6.28V5.28H54.6842V6.28H55.6842ZM60.6282 10.456V9.456H59.6282V10.456H60.6282ZM66.7722 11.176L65.9148 11.6905V11.6905L66.7722 11.176ZM66.7722 16.984L67.6297 17.4985V17.4985L66.7722 16.984ZM60.6282 17.704H59.6282V18.704H60.6282V17.704ZM52.8042 41.752V40.752H45.3642V41.752V42.752H52.8042V41.752ZM45.3642 41.752V40.752C44.7208 40.752 44.4755 40.6011 44.3914 40.5169L43.6842 41.224L42.9771 41.9311C43.597 42.5509 44.4717 42.752 45.3642 42.752V41.752ZM43.6842 41.224L44.3914 40.5169C44.3072 40.4327 44.1562 40.1874 44.1562 39.544H43.1562H42.1562C42.1562 40.4366 42.3573 41.3113 42.9771 41.9311L43.6842 41.224ZM43.1562 39.544H44.1562V8.44H43.1562H42.1562V39.544H43.1562ZM43.1562 8.44H44.1562C44.1562 8.09457 44.1969 7.85632 44.2489 7.70023L43.3002 7.384L42.3516 7.06777C42.2116 7.48768 42.1562 7.95343 42.1562 8.44H43.1562ZM43.3002 7.384L44.2141 7.79014C44.2859 7.62847 44.3755 7.51204 44.479 7.42325L43.8282 6.664L43.1775 5.90474C42.833 6.19996 42.5706 6.56353 42.3864 6.97786L43.3002 7.384ZM43.8282 6.664L44.4737 7.42783L50.6657 2.19584L50.0202 1.432L49.3748 0.668163L43.1828 5.90016L43.8282 6.664ZM50.0202 1.432L50.6449 2.21287C50.6652 2.19663 50.7317 2.15292 50.8868 2.11414L50.6442 1.144L50.4017 0.173855C50.0448 0.263081 49.6953 0.411366 49.3955 0.651131L50.0202 1.432ZM50.6442 1.144L50.9605 2.09268C51.1411 2.03247 51.3379 2 51.5562 2V1V0C51.1346 0 50.7234 0.0635262 50.328 0.195312L50.6442 1.144ZM51.5562 1V2H66.2442V1V0H51.5562V1ZM66.2442 1V2C68.4532 2 70.2492 2.23424 71.658 2.67448L71.9563 1.72L72.2545 0.765518C70.5913 0.245762 68.5793 0 66.2442 0V1ZM71.9563 1.72L71.658 2.67448C73.0876 3.12123 74.1539 3.72664 74.9101 4.45584L75.6042 3.736L76.2984 3.01616C75.2626 2.01736 73.8969 1.27877 72.2545 0.765518L71.9563 1.72ZM75.6042 3.736L74.9101 4.45584C75.678 5.19627 76.2115 6.08309 76.5157 7.13406L77.4762 6.856L78.4368 6.57794C78.037 5.19691 77.3225 4.00373 76.2984 3.01616L75.6042 3.736ZM77.4762 6.856L76.5227 7.15713C76.8722 8.26404 77.0522 9.48915 77.0522 10.84H78.0522H79.0522C79.0522 9.31084 78.8483 7.87996 78.4298 6.55487L77.4762 6.856ZM78.0522 10.84H77.0522V16.984H78.0522H79.0522V10.84H78.0522ZM78.0522 16.984H77.0522C77.0522 18.4222 76.8427 19.7169 76.4364 20.8776L77.3802 21.208L78.3241 21.5384C78.8138 20.1391 79.0522 18.6178 79.0522 16.984H78.0522ZM77.3802 21.208L76.4316 20.8918C76.0765 21.9569 75.4495 22.8773 74.5253 23.6615L75.1722 24.424L75.8192 25.1865C77.007 24.1787 77.852 22.9551 78.3289 21.5242L77.3802 21.208ZM75.1722 24.424L74.5332 23.6548L68.2932 28.8388L68.9323 29.608L69.5713 30.3772L75.8113 25.1932L75.1722 24.424ZM68.9323 29.608L68.2891 28.8423C67.6047 29.4171 66.68 29.9248 65.4819 30.3441L65.8122 31.288L66.1426 32.2319C67.5045 31.7552 68.6598 31.1429 69.5754 30.3737L68.9323 29.608ZM65.8122 31.288L65.496 30.3393C64.3663 30.7159 62.9316 30.9468 61.1692 31.0086L61.2042 32.008L61.2393 33.0074C63.1249 32.9412 64.7622 32.6921 66.1285 32.2367L65.8122 31.288ZM61.2042 32.008H60.2042V34.312H61.2042H62.2042V32.008H61.2042ZM61.2042 34.312H60.2042C60.2042 34.6307 60.1545 34.8356 60.0984 34.9619L61.0122 35.368L61.9261 35.7741C62.126 35.3244 62.2042 34.8253 62.2042 34.312H61.2042ZM61.0122 35.368L60.0636 35.0518C60.0231 35.1731 59.9637 35.2582 59.8815 35.3287L60.5322 36.088L61.183 36.8473C61.5488 36.5338 61.8094 36.1389 61.9609 35.6842L61.0122 35.368ZM60.5322 36.088L59.8932 35.3188L53.6532 40.5028L54.2922 41.272L54.9313 42.0412L61.1713 36.8572L60.5322 36.088ZM54.2922 41.272L53.5851 40.5649C53.6072 40.5428 53.609 40.5484 53.5661 40.5715C53.5246 40.5939 53.4561 40.6246 53.352 40.6593L53.6682 41.608L53.9845 42.5567C54.3325 42.4407 54.7111 42.2673 54.9994 41.9791L54.2922 41.272ZM53.6682 41.608L53.3171 40.6717C53.1908 40.7191 53.0244 40.752 52.8042 40.752V41.752V42.752C53.2241 42.752 53.6337 42.6889 54.0194 42.5443L53.6682 41.608ZM58.9962 36.04V37.04C59.6997 37.04 60.4627 36.8998 60.9994 36.3631L60.2922 35.656L59.5851 34.9489C59.6004 34.9336 59.5868 34.9571 59.4922 34.9852C59.3942 35.0142 59.2353 35.04 58.9962 35.04V36.04ZM60.2922 35.656L60.9994 36.3631C61.55 35.8125 61.7242 35.0558 61.7242 34.312H60.7242H59.7242C59.7242 34.7842 59.6105 34.9235 59.5851 34.9489L60.2922 35.656ZM60.7242 34.312H61.7242V26.344H60.7242H59.7242V34.312H60.7242ZM60.7242 26.344V27.344H66.2442V26.344V25.344H60.7242V26.344ZM66.2442 26.344V27.344C70.6593 27.344 74.0081 26.4811 75.906 24.4314L75.1722 23.752L74.4385 23.0726C73.1364 24.4789 70.5332 25.344 66.2442 25.344V26.344ZM75.1722 23.752L75.906 24.4314C77.7076 22.4856 78.5723 19.9711 78.5723 16.984H77.5723H76.5723C76.5723 19.5649 75.8368 21.5624 74.4385 23.0726L75.1722 23.752ZM77.5723 16.984H78.5723V10.84H77.5723H76.5723V16.984H77.5723ZM77.5723 10.84H78.5723C78.5723 7.85286 77.7076 5.33836 75.906 3.39259L75.1722 4.072L74.4385 4.75141C75.8368 6.26163 76.5723 8.25914 76.5723 10.84H77.5723ZM75.1722 4.072L75.906 3.39259C74.0081 1.34288 70.6593 0.48 66.2442 0.48V1.48V2.48C70.5332 2.48 73.1364 3.34512 74.4385 4.75141L75.1722 4.072ZM66.2442 1.48V0.48H51.5562V1.48V2.48H66.2442V1.48ZM51.5562 1.48V0.48C50.8124 0.48 50.0557 0.654293 49.5051 1.20489L50.2122 1.912L50.9194 2.61911C50.9448 2.59371 51.0841 2.48 51.5562 2.48V1.48ZM50.2122 1.912L49.5051 1.2049C48.9685 1.74155 48.8282 2.50459 48.8282 3.208H49.8282H50.8282C50.8282 2.96897 50.854 2.81008 50.883 2.71209C50.9111 2.6174 50.9346 2.60384 50.9194 2.61911L50.2122 1.912ZM49.8282 3.208H48.8282V34.312H49.8282H50.8282V3.208H49.8282ZM49.8282 34.312H48.8282C48.8282 35.0302 48.9747 35.7689 49.4648 36.3204L50.2122 35.656L50.9597 34.9916C50.9378 34.9671 50.8282 34.8098 50.8282 34.312H49.8282ZM50.2122 35.656L49.5479 36.4034C50.0993 36.8936 50.838 37.04 51.5562 37.04V36.04V35.04C51.0585 35.04 50.9012 34.9304 50.8766 34.9086L50.2122 35.656ZM51.5562 36.04V37.04H58.9962V36.04V35.04H51.5562V36.04ZM65.5722 22.264V21.264H55.6842V22.264V23.264H65.5722V22.264ZM55.6842 22.264H54.6842V31.72H55.6842H56.6842V22.264H55.6842ZM55.6842 31.72V30.72H55.2042V31.72V32.72H55.6842V31.72ZM55.2042 31.72H56.2042V5.8H55.2042H54.2042V31.72H55.2042ZM55.2042 5.8V6.8H65.5722V5.8V4.8H55.2042V5.8ZM65.5722 5.8V6.8C67.0111 6.8 68.0936 6.97017 68.8656 7.263L69.2202 6.328L69.5749 5.393C68.4909 4.98183 67.1413 4.8 65.5722 4.8V5.8ZM69.2202 6.328L68.904 7.27668C69.7484 7.55815 70.3161 7.92603 70.6808 8.33636L71.4282 7.672L72.1757 7.00764C71.5164 6.26597 70.6121 5.73785 69.5365 5.37932L69.2202 6.328ZM71.4282 7.672L70.6808 8.33636C71.0762 8.78112 71.3556 9.31824 71.5119 9.96937L72.4842 9.736L73.4566 9.50263C73.2289 8.55376 72.8043 7.71488 72.1757 7.00764L71.4282 7.672ZM72.4842 9.736L71.5119 9.96937C71.6834 10.6839 71.7722 11.4688 71.7722 12.328H72.7722H73.7722C73.7722 11.3312 73.6691 10.3881 73.4566 9.50262L72.4842 9.736ZM72.7722 12.328H71.7722V15.88H72.7722H73.7722V12.328H72.7722ZM72.7722 15.88H71.7722C71.7722 16.7392 71.6834 17.5241 71.5119 18.2386L72.4842 18.472L73.4566 18.7054C73.6691 17.8199 73.7722 16.8768 73.7722 15.88H72.7722ZM72.4842 18.472L71.5141 18.2295C71.3601 18.8454 71.0827 19.3716 70.6808 19.8236L71.4282 20.488L72.1757 21.1524C72.7978 20.4524 73.2244 19.6346 73.4544 18.7145L72.4842 18.472ZM71.4282 20.488L70.7 19.8026C70.3345 20.191 69.7602 20.5499 68.904 20.8353L69.2202 21.784L69.5365 22.7327C70.6003 22.3781 71.498 21.873 72.1564 21.1734L71.4282 20.488ZM69.2202 21.784L68.8943 20.8386C68.1114 21.1086 67.0179 21.264 65.5722 21.264V22.264V23.264C67.1346 23.264 68.4731 23.0994 69.5462 22.7294L69.2202 21.784ZM55.6842 21.784V22.784H65.5722V21.784V20.784H55.6842V21.784ZM65.5722 21.784V22.784C67.0357 22.784 68.2907 22.6359 69.2965 22.3007L68.9802 21.352L68.664 20.4033C67.9418 20.6441 66.9248 20.784 65.5722 20.784V21.784ZM68.9802 21.352L69.2863 22.304C70.2909 21.9811 71.1447 21.5069 71.7738 20.8359L71.0443 20.152L70.3147 19.4681C69.9837 19.8211 69.4616 20.1469 68.6742 20.4L68.9802 21.352ZM71.0443 20.152L71.7941 20.8136C72.3843 20.1448 72.7821 19.3697 72.9794 18.5016L72.0042 18.28L71.0291 18.0584C70.9064 18.5983 70.6642 19.0712 70.2944 19.4904L71.0443 20.152ZM72.0042 18.28L72.9719 18.5324C73.188 17.7037 73.2923 16.8179 73.2923 15.88H72.2923H71.2923C71.2923 16.6701 71.2045 17.3843 71.0366 18.0276L72.0042 18.28ZM72.2923 15.88H73.2923V12.328H72.2923H71.2923V15.88H72.2923ZM72.2923 12.328H73.2923C73.2923 11.3901 73.188 10.5043 72.9719 9.67558L72.0042 9.928L71.0366 10.1804C71.2045 10.8237 71.2923 11.5379 71.2923 12.328H72.2923ZM72.0042 9.928L72.9814 9.71557C72.7866 8.81952 72.3913 8.02326 71.7941 7.34638L71.0443 8.008L70.2944 8.66962C70.6572 9.08074 70.9019 9.56448 71.0271 10.1404L72.0042 9.928ZM71.0443 8.008L71.7941 7.34637C71.1645 6.63289 70.3038 6.13503 69.2863 5.80797L68.9802 6.76L68.6742 7.71203C69.4487 7.96097 69.964 8.2951 70.2944 8.66962L71.0443 8.008ZM68.9802 6.76L69.3276 5.82225C68.3098 5.44531 67.0428 5.28 65.5722 5.28V6.28V7.28C66.9177 7.28 67.9227 7.43469 68.6329 7.69775L68.9802 6.76ZM65.5722 6.28V5.28H55.6842V6.28V7.28H65.5722V6.28ZM55.6842 6.28H54.6842V21.784H55.6842H56.6842V6.28H55.6842ZM60.6282 10.456V11.456H64.9482V10.456V9.456H60.6282V10.456ZM64.9482 10.456V11.456C65.7638 11.456 65.9034 11.6716 65.9148 11.6905L66.7722 11.176L67.6297 10.6615C67.0651 9.72042 65.9887 9.456 64.9482 9.456V10.456ZM66.7722 11.176L65.9148 11.6905C66.1015 12.0018 66.2042 12.3651 66.2042 12.808H67.2042H68.2042C68.2042 12.0349 68.019 11.3102 67.6297 10.6615L66.7722 11.176ZM67.2042 12.808H66.2042V15.352H67.2042H68.2042V12.808H67.2042ZM67.2042 15.352H66.2042C66.2042 15.7949 66.1015 16.1582 65.9148 16.4695L66.7722 16.984L67.6297 17.4985C68.019 16.8498 68.2042 16.1251 68.2042 15.352H67.2042ZM66.7722 16.984L65.9148 16.4695C65.9034 16.4884 65.7638 16.704 64.9482 16.704V17.704V18.704C65.9887 18.704 67.0651 18.4396 67.6297 17.4985L66.7722 16.984ZM64.9482 17.704V16.704H60.6282V17.704V18.704H64.9482V17.704ZM60.6282 17.704H61.6282V10.456H60.6282H59.6282V17.704H60.6282Z" fill="white" mask="url(#path-1-outside-1_44_2)"/>
</g>
<defs>
<filter id="filter0_d_44_2" x="0" y="0" width="83.0522" height="50.752" filterUnits="userSpaceOnUse" color-interpolation-filters="sRGB">
<feFlood flood-opacity="0" result="BackgroundImageFix"/>
<feColorMatrix in="SourceAlpha" type="matrix" values="0 0 0 0 0 0 0 0 0 0 0 0 0 0 0 0 0 0 127 0" result="hardAlpha"/>
<feOffset dy="4"/>
<feGaussianBlur stdDeviation="2"/>
<feComposite in2="hardAlpha" operator="out"/>
<feColorMatrix type="matrix" values="0 0 0 0 0 0 0 0 0 0 0 0 0 0 0 0 0 0 0.25 0"/>
<feBlend mode="normal" in2="BackgroundImageFix" result="effect1_dropShadow_44_2"/>
<feBlend mode="normal" in="SourceGraphic" in2="effect1_dropShadow_44_2" result="shape"/>
</filter>
</defs>
</svg>
